<?xml version="1.0" encoding="UTF-8"?>
<svg xmlns="http://www.w3.org/2000/svg" xmlns:xlink="http://www.w3.org/1999/xlink" width="279.1pt" height="91.4pt" viewBox="0 0 279.1 91.4" version="1.1">
<defs>
<clipPath id="clip1">
  <path d="M 0 0 L 279.101563 0 L 279.101563 91.398438 L 0 91.398438 Z M 0 0 "/>
</clipPath>
<clipPath id="clip2">
  <path d="M 241 29 L 279.101563 29 L 279.101563 88 L 241 88 Z M 241 29 "/>
</clipPath>
<clipPath id="clip3">
  <path d="M 144 70 L 147 70 L 147 91.398438 L 144 91.398438 Z M 144 70 "/>
</clipPath>
<clipPath id="clip4">
  <path d="M 144 70 L 147 70 L 147 91.398438 L 144 91.398438 Z M 144 70 "/>
</clipPath>
</defs>
<g id="surface1">
<g clip-path="url(#clip1)" clip-rule="nonzero">
<path style=" stroke:none;fill-rule:evenodd;fill:rgb(100%,100%,100%);fill-opacity:1;" d="M 208.554688 77.214844 L 210.421875 77.207031 L 210.421875 86.410156 L 208.578125 86.449219 Z M 126.34375 77.199219 C 126.453125 78 126.453125 85.957031 126.308594 86.460938 C 123.960938 86.640625 124.492188 86.945313 124.492188 81.90625 C 124.492188 80.8125 124.496094 79.722656 124.496094 78.628906 C 124.492188 77.304688 124.078125 76.953125 126.34375 77.199219 Z M 85.171875 72.40625 L 86.996094 72.414063 L 86.980469 86.429688 C 86.632813 86.453125 86.058594 86.484375 85.71875 86.464844 C 85.339844 86.441406 85.515625 86.492188 85.246094 86.34375 C 84.832031 86.109375 85.445313 86.300781 84.941406 86.089844 C 83.269531 86.890625 81.402344 86.808594 80.023438 85.804688 C 77.566406 84.015625 77.511719 79.332031 80.316406 77.613281 C 81.054688 77.164063 81.746094 76.988281 82.792969 76.992188 C 84.394531 76.996094 84.40625 77.433594 85.148438 77.582031 Z M 157.222656 85.992188 L 157.222656 72.4375 L 159.09375 72.414063 L 159.109375 77.527344 C 159.648438 77.457031 162.113281 76.105469 164.386719 77.890625 C 166.355469 79.441406 167.324219 84.839844 162.96875 86.332031 C 161.390625 86.871094 158.554688 86.660156 157.222656 85.992188 Z M 36.59375 86.011719 C 36.535156 84.511719 36.453125 72.953125 36.679688 72.382813 L 38.4375 72.382813 L 38.496094 77.535156 C 39.464844 77.355469 39.277344 76.917969 41.351563 77.007813 C 47.308594 77.265625 47.671875 89.539063 36.59375 86.011719 Z M 93.636719 86.613281 C 87.253906 86.601563 87.164063 77.050781 93.636719 76.988281 C 96.40625 76.964844 98.546875 79.007813 98.648438 81.679688 C 98.746094 84.355469 96.628906 86.617188 93.636719 86.613281 Z M 230.140625 83.726563 L 230.15625 85.40625 C 228.859375 86.617188 225.515625 87.113281 223.71875 86.097656 C 221.972656 85.113281 220.804688 82.632813 221.578125 80.058594 C 222.996094 75.328125 230.96875 76.070313 230.203125 82.140625 L 223.421875 82.15625 C 223.21875 84.558594 225.835938 85.414063 228.296875 84.539063 C 228.894531 84.328125 229.621094 83.765625 230.140625 83.726563 Z M 175.941406 83.734375 L 175.960938 85.496094 C 169.554688 88.945313 166.226563 84.125 167.429688 80.035156 C 168.789063 75.421875 176.6875 75.957031 176.078125 82.128906 L 169.230469 82.15625 C 169.078125 84.554688 171.664063 85.421875 174.085938 84.546875 C 174.679688 84.328125 175.546875 83.769531 175.941406 83.734375 Z M 55.335938 83.71875 L 55.359375 85.40625 C 54.082031 86.683594 50.753906 87.054688 48.917969 86.082031 C 47.226563 85.183594 46.058594 82.765625 46.789063 80.148438 C 48.164063 75.273438 56.15625 76.050781 55.398438 82.148438 L 48.617188 82.15625 C 48.503906 84.640625 51.019531 85.375 53.453125 84.539063 C 54.078125 84.320313 54.910156 83.777344 55.335938 83.71875 Z M 179.722656 78.148438 C 180.039063 78.085938 180.621094 77.558594 181.023438 77.371094 C 182.027344 76.890625 183.445313 76.898438 184.363281 77.453125 C 184.855469 77.753906 184.902344 77.910156 185.1875 78.214844 C 185.414063 78.453125 185.273438 78.316406 185.449219 78.449219 C 185.941406 78.28125 186.253906 77.859375 186.753906 77.554688 C 188.246094 76.644531 190.464844 76.902344 191.390625 78.335938 C 192.078125 79.402344 191.910156 80.605469 191.910156 82.132813 C 191.910156 83.492188 191.984375 85.085938 191.882813 86.445313 L 190.066406 86.425781 C 189.722656 82.117188 191.089844 78.484375 187.929688 78.613281 C 187.203125 78.640625 186.65625 78.914063 186.171875 79.355469 C 185.605469 79.867188 185.789063 80.539063 185.789063 81.453125 C 185.789063 83.023438 185.882813 84.871094 185.773438 86.441406 L 183.984375 86.410156 C 183.71875 82.054688 184.933594 78.476563 181.828125 78.613281 C 181.027344 78.648438 180.527344 78.960938 180.09375 79.375 C 179.511719 79.9375 179.703125 80.425781 179.703125 81.453125 C 179.703125 83.003906 179.804688 84.902344 179.683594 86.441406 L 177.84375 86.433594 L 177.894531 77.167969 L 179.683594 77.199219 Z M 110.007813 78.082031 C 110.535156 77.996094 112.359375 76.152344 114.664063 77.46875 C 114.914063 77.613281 115.039063 77.71875 115.230469 77.925781 C 115.484375 78.207031 115.425781 78.269531 115.769531 78.449219 C 116.410156 78.132813 116.886719 77.511719 117.636719 77.238281 C 118.460938 76.9375 119.53125 76.96875 120.289063 77.265625 C 122.03125 77.945313 122.195313 79.328125 122.195313 81.339844 L 122.171875 86.441406 L 120.304688 86.398438 L 120.296875 81.679688 C 120.296875 80.4375 120.367188 78.878906 118.925781 78.648438 C 117.78125 78.464844 116.476563 78.976563 116.15625 79.699219 C 115.886719 80.300781 116.070313 82.734375 116.070313 83.601563 C 116.070313 86.726563 116.34375 86.476563 115.203125 86.476563 C 114.148438 86.476563 114.203125 86.515625 114.203125 85.757813 L 114.214844 81.113281 C 114.214844 77.222656 110.84375 78.734375 110.210938 79.503906 C 109.808594 79.992188 109.992188 83.546875 109.996094 84.730469 L 109.988281 86.078125 C 109.871094 86.675781 109.320313 86.527344 108.121094 86.460938 C 108.089844 83.613281 108.023438 80.023438 108.140625 77.203125 C 108.449219 77.167969 109.277344 77.128906 109.570313 77.160156 C 110.179688 77.226563 109.984375 77.414063 110.007813 78.082031 Z M 59.140625 78.113281 C 59.53125 77.980469 61.621094 76.109375 63.816406 77.503906 C 64.390625 77.871094 64.433594 78.148438 64.839844 78.496094 C 65.492188 78.179688 66.171875 77.113281 67.773438 77.03125 C 69.105469 76.964844 70.164063 77.449219 70.769531 78.347656 C 71.460938 79.382813 71.296875 80.820313 71.296875 82.132813 C 71.296875 83.511719 71.363281 85.050781 71.277344 86.421875 C 70.480469 86.464844 70.191406 86.507813 69.402344 86.386719 L 69.398438 82.46875 C 69.398438 81.164063 69.582031 79.429688 68.59375 78.839844 C 67.902344 78.425781 66.738281 78.605469 66.152344 78.921875 C 64.984375 79.558594 65.15625 80.050781 65.160156 80.886719 L 65.144531 86.441406 L 63.355469 86.425781 L 63.347656 81.453125 C 63.34375 80.1875 63.28125 79.113281 62.261719 78.734375 C 61.222656 78.347656 60.105469 78.742188 59.414063 79.421875 C 58.9375 79.894531 59.09375 80.292969 59.097656 81 C 59.101563 82.074219 59.1875 85.945313 59.011719 86.464844 C 58.742188 86.480469 57.726563 86.515625 57.515625 86.476563 C 57.035156 86.390625 57.199219 85.96875 57.199219 85.40625 L 57.199219 78.175781 C 57.199219 77.433594 56.996094 77.199219 57.710938 77.160156 C 58.105469 77.136719 58.738281 77.140625 59.113281 77.234375 Z M 237.773438 79.515625 C 237.046875 79.269531 236.675781 78.570313 235.535156 78.910156 C 232.894531 79.695313 234.367188 84.863281 233.828125 86.355469 C 233.453125 86.515625 232.527344 86.503906 232.136719 86.375 C 231.824219 85.589844 232.046875 82.875 232.046875 81.792969 C 232.039063 80.621094 231.914063 78.214844 232.097656 77.1875 L 233.863281 77.179688 L 233.921875 78.949219 C 234.453125 78.714844 234.855469 77.5625 235.824219 77.167969 C 236.828125 76.761719 238.191406 77.257813 238.671875 77.953125 Z M 134.515625 79.453125 C 134.121094 79.347656 131.929688 77.566406 130.855469 80.617188 C 130.429688 81.824219 130.757813 84.863281 130.652344 86.40625 L 128.859375 86.453125 L 128.835938 77.183594 L 130.640625 77.179688 L 130.683594 78.972656 C 131.316406 78.558594 131.558594 77.605469 132.605469 77.167969 C 133.605469 76.746094 134.996094 77.285156 135.445313 77.953125 C 135.308594 78.433594 134.859375 79.15625 134.515625 79.453125 Z M 106.222656 79.464844 C 105.636719 79.363281 103.558594 77.574219 102.46875 80.570313 C 101.980469 81.914063 102.363281 84.761719 102.238281 86.4375 L 100.4375 86.414063 L 100.425781 77.839844 C 100.425781 77.210938 100.316406 77.179688 100.960938 77.15625 C 101.359375 77.140625 101.886719 77.148438 102.269531 77.226563 L 102.289063 78.804688 C 102.753906 78.679688 102.578125 78.761719 102.867188 78.367188 C 103.035156 78.136719 103.050781 78.097656 103.265625 77.867188 C 104.492188 76.535156 105.816406 76.925781 107.03125 77.839844 C 107.035156 78.378906 106.460938 79.003906 106.222656 79.464844 Z M 211.453125 77.195313 L 213.449219 77.171875 L 216.234375 83.15625 C 216.800781 82.683594 218.3125 78.296875 218.996094 77.1875 L 220.902344 77.171875 C 220.878906 77.652344 217.140625 85.925781 216.703125 86.613281 L 215.855469 86.632813 C 215.328125 85.589844 211.511719 77.636719 211.453125 77.195313 Z M 197.996094 77.191406 L 199.902344 77.167969 C 200.265625 77.566406 201.585938 80.640625 202.035156 81.59375 C 202.164063 81.875 202.285156 82.125 202.390625 82.355469 C 202.527344 82.660156 202.585938 82.855469 202.839844 83.070313 C 203.050781 82.859375 203.074219 82.769531 203.226563 82.410156 C 203.609375 81.492188 205.339844 77.433594 205.550781 77.199219 L 207.445313 77.175781 C 207.414063 77.625 203.789063 85.585938 203.257813 86.605469 L 202.390625 86.632813 C 201.953125 85.972656 198.027344 77.550781 197.996094 77.191406 Z M 208.949219 73.546875 C 210.085938 72.804688 211.203125 74.648438 210.050781 75.328125 C 208.800781 76.066406 207.84375 74.265625 208.949219 73.546875 Z M 125.023438 73.519531 C 126.441406 72.90625 126.972656 74.980469 125.863281 75.394531 C 124.535156 75.890625 123.796875 74.046875 125.023438 73.519531 Z M 127.394531 58.632813 C 127.054688 59.601563 124.800781 61.664063 123.886719 62.34375 C 119.066406 65.933594 112.003906 64.484375 111.296875 57.226563 C 110.550781 49.589844 115.675781 40.847656 119.144531 36.589844 C 121.15625 34.121094 123.886719 31.511719 127.273438 30.375 C 129.1875 29.734375 131.441406 29.402344 133.113281 30.550781 C 134.496094 31.5 135.074219 33.5625 134.578125 35.90625 C 133.433594 41.285156 128.847656 44.851563 124.503906 47.148438 C 122.011719 48.464844 121.007813 48.230469 118.820313 48.605469 C 117.492188 51.199219 115.316406 57.546875 117.144531 60.648438 C 118.324219 62.652344 120.402344 62.613281 122.4375 61.574219 C 124.839844 60.351563 125.242188 59.140625 126.496094 58.066406 C 126.855469 58.15625 127.144531 58.398438 127.394531 58.632813 Z M 147.71875 39.878906 C 148.277344 39.488281 152.230469 34.039063 156.488281 31.46875 C 157.804688 30.675781 161.179688 28.90625 162.84375 30.40625 C 164.574219 31.972656 163.320313 35.488281 162.746094 37.28125 C 161.371094 41.550781 159.871094 45.847656 158.476563 50.171875 C 157.78125 52.320313 157.128906 54.460938 156.359375 56.65625 C 156.164063 57.203125 155.214844 59.515625 155.777344 60.082031 C 156.621094 60.929688 157.9375 58.96875 158.453125 58.699219 C 158.914063 58.847656 158.972656 58.929688 159.246094 59.308594 C 159.398438 59.914063 154.964844 65.710938 151.3125 64.542969 C 149.6875 64.023438 149.339844 61.820313 149.558594 59.664063 C 149.734375 57.886719 150.425781 56.050781 151.003906 54.445313 C 152.644531 49.871094 154.429688 44.25 156.015625 39.472656 C 156.316406 38.578125 157.742188 35.203125 157.101563 34.457031 C 155.886719 33.976563 154.0625 35.796875 153.316406 36.429688 C 147.988281 40.964844 144.769531 48.691406 142.621094 55.324219 L 139.710938 64.144531 L 134.410156 64.160156 C 134.367188 63.554688 136.371094 57.726563 136.730469 56.65625 C 137.550781 54.164063 138.335938 51.734375 139.144531 49.25 C 140.304688 45.667969 141.53125 41.675781 142.753906 38.191406 C 143.027344 37.410156 143.984375 35.003906 143.367188 34.34375 C 142.339844 33.726563 140.789063 35.871094 140.390625 36.339844 C 140.007813 36.265625 139.742188 36 139.480469 35.699219 C 139.648438 34.867188 141.640625 32.800781 142.488281 32.148438 C 143.589844 31.300781 145.234375 30.101563 147.054688 30.128906 C 150.179688 30.175781 148.828125 34.382813 148.253906 37.132813 C 148.101563 37.851563 147.746094 39.175781 147.71875 39.878906 Z M 239.453125 36.714844 C 239.78125 36.523438 241.539063 34.386719 242.144531 33.78125 C 244.351563 31.574219 249.996094 26.808594 252.882813 30.144531 C 254.628906 32.160156 253.488281 37.242188 250.726563 37.632813 C 248.617188 37.933594 247.769531 36.71875 248.210938 34.742188 C 248.777344 32.191406 246.421875 32.652344 245.183594 33.429688 C 244.285156 33.996094 243.136719 35.328125 242.386719 36.277344 C 238.1875 41.585938 236.253906 49.375 234.171875 55.84375 C 233.796875 57.007813 231.777344 63.757813 231.449219 64.207031 L 225.828125 64.203125 C 225.679688 63.617188 227.789063 57.628906 228.121094 56.605469 C 228.972656 54.039063 229.789063 51.585938 230.550781 49.054688 C 231.65625 45.386719 233.09375 41.46875 234.191406 37.792969 C 234.378906 37.164063 234.59375 36.472656 234.800781 35.921875 C 236.253906 32.050781 232.996094 34.285156 231.8125 35.980469 C 231.363281 35.835938 231.242188 35.8125 230.910156 35.359375 C 231.265625 33.871094 234.503906 30.472656 236.714844 29.730469 C 238.617188 29.097656 239.703125 30.28125 240.023438 31.824219 C 240.433594 33.816406 239.589844 35.746094 239.453125 36.714844 Z M 198.089844 36.039063 C 198.441406 34.574219 202.371094 30.503906 204.949219 29.882813 C 210.113281 28.640625 207.691406 35.9375 206.90625 38.28125 C 205.820313 41.519531 204.722656 44.886719 203.730469 48.105469 C 202.742188 51.308594 201.6875 54.699219 200.578125 57.828125 C 199.570313 60.683594 201.617188 60.953125 203.390625 59.742188 C 204.472656 59 205.820313 57.382813 206.546875 56.46875 C 208.535156 53.980469 210.03125 51.3125 211.5625 48.492188 C 212.316406 47.105469 212.933594 45.492188 213.628906 44.011719 C 214.785156 41.53125 216.273438 37.4375 217.230469 34.746094 L 218.769531 29.824219 L 224.3125 29.828125 C 224.3125 30.453125 222.28125 36.636719 221.941406 37.742188 C 220.097656 43.714844 217.664063 50.972656 215.601563 56.925781 C 215.230469 58.003906 214.359375 59.9375 214.9375 60.863281 C 216.664063 61.203125 217.550781 58.917969 218.3125 58.535156 C 218.6875 58.671875 218.90625 58.890625 219.136719 59.195313 C 218.929688 60.171875 217.011719 62.222656 216.183594 62.945313 C 212.328125 66.289063 207.988281 64.960938 210.070313 56.742188 C 210.253906 56.007813 210.648438 54.621094 210.6875 53.953125 C 210.175781 54.242188 209.222656 55.871094 208.839844 56.386719 C 208.226563 57.210938 207.703125 57.847656 207.019531 58.636719 C 205.007813 60.957031 200.257813 65.351563 196.886719 64.71875 C 194.765625 64.320313 193.710938 61.929688 194.109375 59.480469 C 194.269531 58.507813 194.738281 57.210938 195.066406 56.28125 C 195.445313 55.214844 195.71875 54.265625 196.066406 53.191406 C 197.640625 48.304688 199.414063 42.742188 201.085938 37.914063 C 201.324219 37.21875 202.164063 35.074219 201.734375 34.65625 C 200.851563 34.152344 199.503906 36.140625 198.996094 36.6875 C 198.597656 36.613281 198.328125 36.328125 198.089844 36.035156 Z M 103.984375 29.996094 C 104.496094 29.152344 105.40625 25.054688 105.867188 24.664063 C 106.054688 24.503906 111.007813 23.066406 111.449219 23.058594 C 111.382813 24.078125 109.320313 29.25 109.378906 30 C 111.296875 30.027344 113.554688 29.945313 115.390625 30.035156 L 114.800781 32.46875 C 112.734375 32.46875 110.558594 32.429688 108.496094 32.492188 C 108.066406 33.507813 107.621094 34.96875 107.308594 36.046875 C 106.46875 38.960938 104.859375 43.59375 103.898438 46.535156 L 100.480469 56.984375 C 100.136719 58.058594 99.414063 59.835938 100.078125 60.761719 C 101.472656 60.957031 102.472656 59.183594 103.234375 58.597656 C 103.59375 58.707031 103.867188 58.949219 104.132813 59.195313 C 104.019531 60.289063 99.3125 66.25 95.820313 64.246094 C 92.65625 62.429688 95.378906 56.738281 96.296875 53.71875 C 97.855469 48.613281 99.8125 43.039063 101.46875 37.902344 C 101.78125 36.925781 103.0625 33.210938 103.152344 32.5 L 98.558594 32.460938 C 98.503906 32.015625 98.691406 31.652344 98.792969 31.261719 C 98.898438 30.878906 98.988281 30.21875 99.214844 30.082031 C 100.128906 29.808594 102.777344 30.050781 103.984375 29.996094 Z M 89.285156 11.242188 C 89.289063 10.863281 89.679688 10.265625 89.910156 9.898438 L 99.792969 9.898438 C 99.742188 10.921875 98.15625 15.222656 97.746094 16.429688 C 97.03125 18.535156 96.378906 20.683594 95.664063 22.703125 C 94.199219 26.835938 92.914063 31.0625 91.492188 35.242188 C 90.089844 39.359375 88.644531 43.625 87.324219 47.785156 C 86.660156 49.875 85.972656 51.949219 85.242188 54.066406 C 84.824219 55.28125 82.957031 59.964844 83.773438 60.585938 C 85.246094 61.023438 86.320313 59.207031 87.085938 58.5 C 87.542969 58.601563 87.621094 58.8125 88.003906 59.0625 C 87.710938 60.472656 84.761719 63.851563 82.386719 64.433594 C 80.617188 64.867188 79.152344 63.917969 78.636719 62.792969 C 78.027344 61.457031 78.296875 59.542969 78.71875 58.1875 C 80.355469 52.890625 82.617188 46.710938 84.109375 41.652344 C 84.914063 38.921875 85.921875 36.089844 86.8125 33.398438 L 92.203125 16.851563 C 92.523438 15.875 93.421875 13.554688 93.457031 12.535156 C 93.511719 10.65625 91.527344 11.46875 89.285156 11.242188 Z M 175.574219 10.777344 C 175.585938 10.515625 175.644531 10.386719 175.753906 10.167969 L 175.996094 9.75 C 176.277344 9.339844 176.445313 9.359375 177.085938 9.367188 C 180.078125 9.394531 183.175781 9.316406 186.140625 9.378906 C 186.148438 9.746094 182.828125 20.253906 182.441406 21.390625 C 181.988281 22.703125 178.769531 32.777344 178.746094 33.339844 C 179.480469 32.894531 181.355469 30.1875 184.578125 29.507813 C 187.675781 28.859375 190.105469 29.878906 191.296875 32 C 193.703125 36.289063 191.140625 43.601563 189.574219 47.410156 C 188.652344 49.65625 187.554688 51.714844 186.308594 53.734375 C 184.710938 56.324219 184.15625 56.953125 182.105469 59.015625 C 180.699219 60.433594 178.898438 62.117188 176.921875 63.324219 C 175.234375 64.351563 171.945313 65.773438 169.382813 65.0625 C 163.914063 63.550781 165.863281 55.410156 167.296875 51.089844 C 168.886719 46.296875 170.320313 41.734375 171.949219 36.773438 C 173.515625 31.996094 174.984375 27.046875 176.621094 22.339844 C 177.46875 19.898438 178.191406 17.589844 178.945313 15.167969 C 179.171875 14.433594 180.09375 12.222656 179.703125 11.375 C 179.253906 10.375 176.769531 10.933594 175.574219 10.777344 Z M 0.015625 58.597656 L 0.015625 91.394531 L 144.914063 91.394531 C 144.71875 90.726563 144.757813 71.132813 144.921875 70.722656 C 145.3125 70.539063 145.976563 70.59375 146.414063 70.671875 C 146.585938 71.164063 146.652344 90.308594 146.453125 91.394531 L 279.179688 91.394531 L 279.179688 30.027344 L 278.328125 32.359375 C 278.050781 33.160156 277.800781 33.941406 277.554688 34.753906 C 276.164063 39.363281 274.394531 44.304688 272.933594 48.988281 C 270.003906 58.34375 266.746094 68 263.683594 77.457031 C 262.449219 81.257813 261.855469 83.277344 259.214844 85.546875 C 256.878906 87.554688 253.269531 88.742188 249.703125 87.421875 C 246.402344 86.195313 245.101563 83.71875 243.367188 84.710938 C 242.386719 85.269531 242.617188 85.945313 241.402344 85.691406 C 241.394531 85.570313 243.859375 77.332031 244.394531 76.035156 C 244.605469 75.519531 244.351563 75.726563 244.851563 75.628906 C 244.871094 75.660156 244.886719 75.699219 244.894531 75.726563 C 245.226563 76.710938 244.878906 75.265625 244.984375 76.03125 C 245.121094 77.042969 244.222656 83.414063 248.289063 85.464844 C 249.992188 86.320313 252.296875 85.75 253.550781 84.96875 C 257.113281 82.746094 258.484375 75.855469 259.828125 71.570313 C 260.09375 70.734375 262.777344 62.171875 262.835938 61.433594 C 262.277344 61.691406 261.46875 62.65625 259.847656 63.480469 C 258.730469 64.050781 257.429688 64.410156 255.914063 64.429688 C 252.839844 64.472656 250.9375 62.84375 250.039063 60.554688 C 248.015625 55.359375 250.214844 49.007813 252.246094 44.804688 C 255.078125 38.949219 259.808594 31.199219 266.722656 29.910156 C 271.128906 29.085938 272.324219 32.554688 273.101563 33.109375 C 273.820313 31.960938 274.429688 30.601563 275.003906 29.414063 L 279.179688 29.410156 L 279.179688 -0.00390625 L 83.46875 -0.00390625 C 83.378906 0.695313 81.417969 6.484375 81.039063 7.609375 C 80.023438 10.585938 73.691406 29.707031 73.710938 30 L 81.003906 30.011719 L 80.746094 31.609375 L 73.296875 31.632813 C 71.296875 37.277344 69.714844 42.558594 67.761719 48.246094 C 67.078125 50.242188 65.539063 54.71875 65.027344 56.542969 C 63.613281 61.578125 68.015625 61.617188 69.738281 58.789063 C 70.277344 58.90625 70.4375 59.035156 70.710938 59.421875 C 70.523438 60.515625 68.148438 62.917969 67.351563 63.523438 C 63.398438 66.53125 55.910156 64.632813 59.886719 53.582031 C 60.28125 52.492188 67.429688 32.179688 67.464844 31.617188 L 65.246094 31.621094 C 64.777344 32.34375 64.328125 33.191406 63.890625 33.964844 C 62.664063 36.125 60.914063 38.652344 59.496094 40.628906 C 55.164063 46.679688 51.003906 51.308594 45.605469 56.339844 C 38.46875 62.996094 27.203125 71.113281 16.621094 71.484375 C 9.457031 71.734375 2.625 68.683594 0.585938 61.691406 L 0.0546875 58.6875 C 0.046875 58.636719 0.03125 58.625 0.015625 58.597656 Z M 0.015625 58.597656 "/>
</g>
<path style=" stroke:none;fill-rule:evenodd;fill:rgb(100%,100%,100%);fill-opacity:1;" d="M 0.015625 56.855469 C 0.0351563 56.828125 0.046875 56.789063 0.0585938 56.765625 C 0.296875 56.105469 0.210938 54.753906 1.167969 52.34375 C 1.746094 50.910156 2.363281 49.796875 3.144531 48.65625 C 7.695313 42.011719 15.324219 37.519531 23.332031 35.1875 C 34.394531 31.96875 41.148438 31.210938 52.195313 30.3125 C 55.71875 30.027344 59.527344 30.257813 63.09375 29.984375 C 67.074219 23.449219 70.863281 14.96875 74.03125 7.730469 C 74.507813 6.636719 77.085938 0.71875 77.21875 -0.00390625 L 0.015625 -0.00390625 Z M 0.015625 56.855469 "/>
<path style=" stroke:none;fill-rule:evenodd;fill:rgb(100%,100%,100%);fill-opacity:1;" d="M 62.121094 31.640625 C 58.484375 31.402344 50.308594 32.210938 46.457031 32.679688 C 34.347656 34.15625 18.515625 37.613281 10.601563 46.738281 C 7.207031 50.644531 3.894531 57.496094 9.25 61.925781 C 11.40625 63.710938 14.421875 64.449219 17.640625 64.738281 C 19.976563 64.945313 25.148438 63.882813 27.1875 63.207031 C 40.621094 58.761719 49.695313 49.203125 57.703125 38.277344 C 58.308594 37.453125 61.921875 32.375 62.121094 31.640625 Z M 62.121094 31.640625 "/>
<path style=" stroke:none;fill-rule:evenodd;fill:rgb(14.501953%,21.556091%,45.092773%);fill-opacity:1;" d="M 62.121094 31.640625 C 61.921875 32.375 58.308594 37.453125 57.703125 38.277344 C 49.695313 49.203125 40.621094 58.761719 27.1875 63.207031 C 25.148438 63.882813 19.976563 64.945313 17.640625 64.738281 C 14.421875 64.449219 11.40625 63.710938 9.25 61.925781 C 3.894531 57.496094 7.207031 50.644531 10.601563 46.738281 C 18.515625 37.613281 34.347656 34.15625 46.457031 32.679688 C 50.308594 32.210938 58.484375 31.402344 62.121094 31.640625 Z M 72.976563 17.1875 C 72.980469 17.335938 68.78125 29.3125 68.40625 30 L 66.136719 29.988281 C 66.152344 29.617188 69.082031 24.148438 69.472656 23.386719 C 70.289063 21.785156 72.285156 18.140625 72.824219 16.890625 C 72.976563 16.367188 72.964844 16.476563 73.207031 16.054688 C 73.4375 15.644531 73.277344 15.730469 73.683594 15.402344 L 73.3125 16.800781 C 73.066406 17.335938 73.167969 17.027344 72.976563 17.1875 Z M 0.015625 56.855469 L 0.015625 58.597656 C 0.03125 58.625 0.046875 58.636719 0.0546875 58.6875 L 0.585938 61.6875 C 2.625 68.679688 9.457031 71.734375 16.621094 71.484375 C 27.203125 71.113281 38.46875 62.992188 45.605469 56.339844 C 51.003906 51.308594 55.164063 46.675781 59.496094 40.628906 C 60.914063 38.652344 62.664063 36.125 63.890625 33.964844 C 64.328125 33.1875 64.777344 32.34375 65.246094 31.621094 L 67.464844 31.613281 C 67.429688 32.175781 60.28125 52.492188 59.886719 53.578125 C 55.910156 64.632813 63.398438 66.527344 67.351563 63.523438 C 68.148438 62.917969 70.523438 60.511719 70.710938 59.421875 C 70.4375 59.035156 70.277344 58.90625 69.738281 58.785156 C 68.015625 61.613281 63.613281 61.578125 65.03125 56.542969 C 65.539063 54.714844 67.078125 50.242188 67.765625 48.246094 C 69.71875 42.558594 71.296875 37.277344 73.304688 31.632813 L 80.746094 31.609375 L 81.003906 30.011719 L 73.710938 30 C 73.691406 29.703125 80.023438 10.585938 81.039063 7.605469 C 81.417969 6.484375 83.378906 0.695313 83.46875 -0.00390625 L 77.21875 -0.00390625 C 77.085938 0.714844 74.507813 6.636719 74.03125 7.730469 C 70.863281 14.964844 67.074219 23.445313 63.09375 29.984375 C 59.527344 30.257813 55.71875 30.027344 52.195313 30.3125 C 41.148438 31.210938 34.394531 31.96875 23.332031 35.1875 C 15.324219 37.519531 7.695313 42.007813 3.144531 48.65625 C 2.363281 49.796875 1.746094 50.910156 1.167969 52.34375 C 0.210938 54.753906 0.296875 56.105469 0.0585938 56.765625 C 0.046875 56.789063 0.0351563 56.828125 0.015625 56.855469 Z M 0.015625 56.855469 "/>
<g clip-path="url(#clip2)" clip-rule="nonzero">
<path style=" stroke:none;fill-rule:evenodd;fill:rgb(14.501953%,21.556091%,45.092773%);fill-opacity:1;" d="M 270.78125 36.035156 C 270.363281 39.253906 270.703125 37.835938 269.828125 41.03125 C 268.039063 47.554688 264.539063 55.957031 260.328125 61.011719 C 257.746094 64.105469 254.601563 63.960938 254.695313 58.859375 C 254.746094 55.914063 255.84375 51.964844 256.804688 49.253906 C 257.828125 46.363281 259.003906 43.769531 260.472656 41.054688 C 261.808594 38.585938 265.425781 31.257813 268.96875 32.035156 C 270.726563 32.421875 271.011719 34.261719 270.78125 36.035156 Z M 279.183594 30.027344 L 279.183594 29.410156 L 275.003906 29.414063 C 274.429688 30.601563 273.820313 31.960938 273.101563 33.109375 C 272.324219 32.554688 271.128906 29.085938 266.722656 29.910156 C 259.808594 31.199219 255.078125 38.949219 252.246094 44.804688 C 250.214844 49.007813 248.015625 55.359375 250.039063 60.554688 C 250.9375 62.84375 252.839844 64.472656 255.914063 64.429688 C 257.429688 64.410156 258.730469 64.050781 259.847656 63.480469 C 261.46875 62.65625 262.277344 61.691406 262.835938 61.433594 C 262.777344 62.171875 260.09375 70.734375 259.828125 71.570313 C 258.484375 75.855469 257.113281 82.746094 253.550781 84.96875 C 252.300781 85.75 249.992188 86.320313 248.289063 85.464844 C 244.222656 83.414063 245.121094 77.042969 244.984375 76.03125 C 244.878906 75.265625 245.226563 76.710938 244.894531 75.726563 C 244.886719 75.699219 244.871094 75.660156 244.851563 75.628906 C 244.351563 75.726563 244.605469 75.519531 244.394531 76.035156 C 243.859375 77.332031 241.394531 85.570313 241.402344 85.691406 C 242.617188 85.945313 242.386719 85.269531 243.367188 84.710938 C 245.101563 83.71875 246.402344 86.195313 249.703125 87.421875 C 253.269531 88.742188 256.878906 87.554688 259.214844 85.546875 C 261.855469 83.277344 262.449219 81.257813 263.683594 77.457031 C 266.746094 68 270.003906 58.34375 272.933594 48.988281 C 274.398438 44.304688 276.164063 39.363281 277.554688 34.753906 C 277.800781 33.941406 278.050781 33.160156 278.328125 32.359375 Z M 279.183594 30.027344 "/>
</g>
<path style=" stroke:none;fill-rule:evenodd;fill:rgb(14.501953%,21.556091%,45.092773%);fill-opacity:1;" d="M 183.855469 32.824219 C 187.851563 31.800781 186.164063 39.054688 185.699219 40.8125 C 184.121094 46.804688 182.011719 51.761719 178.894531 56.816406 C 177.839844 58.519531 175.230469 62.179688 173.425781 62.765625 C 171.363281 63.433594 170.746094 61.457031 170.753906 59.761719 C 170.757813 58.039063 171.246094 56.363281 171.65625 54.890625 C 172.476563 51.925781 173.289063 49.09375 174.496094 46.320313 C 176.226563 42.332031 179.496094 33.941406 183.855469 32.824219 Z M 175.574219 10.777344 C 176.769531 10.933594 179.253906 10.375 179.703125 11.375 C 180.09375 12.222656 179.171875 14.433594 178.945313 15.167969 C 178.191406 17.589844 177.46875 19.898438 176.621094 22.339844 C 174.984375 27.046875 173.515625 31.996094 171.949219 36.773438 C 170.320313 41.734375 168.886719 46.296875 167.296875 51.089844 C 165.863281 55.410156 163.914063 63.550781 169.382813 65.0625 C 171.945313 65.773438 175.234375 64.351563 176.921875 63.324219 C 178.898438 62.117188 180.699219 60.433594 182.105469 59.015625 C 184.15625 56.953125 184.710938 56.324219 186.308594 53.734375 C 187.554688 51.714844 188.652344 49.65625 189.574219 47.410156 C 191.140625 43.601563 193.703125 36.289063 191.296875 32 C 190.105469 29.878906 187.675781 28.855469 184.578125 29.507813 C 181.355469 30.1875 179.480469 32.894531 178.746094 33.339844 C 178.769531 32.777344 181.988281 22.703125 182.441406 21.390625 C 182.828125 20.253906 186.148438 9.746094 186.140625 9.378906 C 183.175781 9.316406 180.078125 9.394531 177.085938 9.367188 C 176.445313 9.359375 176.277344 9.339844 175.996094 9.75 L 175.753906 10.167969 C 175.644531 10.386719 175.585938 10.515625 175.574219 10.777344 Z M 175.574219 10.777344 "/>
<path style=" stroke:none;fill-rule:evenodd;fill:rgb(14.501953%,21.556091%,45.092773%);fill-opacity:1;" d="M 198.089844 36.035156 C 198.328125 36.328125 198.597656 36.613281 198.996094 36.6875 C 199.503906 36.140625 200.851563 34.152344 201.734375 34.65625 C 202.164063 35.074219 201.324219 37.21875 201.085938 37.914063 C 199.414063 42.742188 197.640625 48.304688 196.066406 53.191406 C 195.71875 54.265625 195.445313 55.214844 195.066406 56.28125 C 194.738281 57.210938 194.269531 58.507813 194.109375 59.480469 C 193.710938 61.929688 194.765625 64.320313 196.886719 64.71875 C 200.257813 65.351563 205.007813 60.957031 207.019531 58.636719 C 207.703125 57.847656 208.226563 57.210938 208.839844 56.386719 C 209.222656 55.871094 210.175781 54.242188 210.6875 53.953125 C 210.648438 54.621094 210.253906 56.007813 210.070313 56.742188 C 207.988281 64.960938 212.328125 66.289063 216.183594 62.945313 C 217.011719 62.222656 218.929688 60.171875 219.136719 59.195313 C 218.90625 58.890625 218.6875 58.671875 218.3125 58.535156 C 217.550781 58.917969 216.664063 61.203125 214.9375 60.863281 C 214.359375 59.9375 215.230469 58.003906 215.601563 56.925781 C 217.664063 50.972656 220.097656 43.714844 221.941406 37.742188 C 222.28125 36.636719 224.3125 30.453125 224.3125 29.828125 L 218.769531 29.824219 L 217.230469 34.746094 C 216.273438 37.4375 214.785156 41.53125 213.628906 44.011719 C 212.933594 45.492188 212.316406 47.105469 211.5625 48.492188 C 210.03125 51.3125 208.535156 53.980469 206.546875 56.46875 C 205.820313 57.382813 204.472656 59 203.390625 59.742188 C 201.617188 60.953125 199.570313 60.683594 200.578125 57.828125 C 201.6875 54.699219 202.742188 51.308594 203.730469 48.105469 C 204.722656 44.886719 205.820313 41.519531 206.90625 38.28125 C 207.691406 35.9375 210.113281 28.640625 204.949219 29.882813 C 202.371094 30.503906 198.441406 34.574219 198.089844 36.039063 Z M 198.089844 36.035156 "/>
<path style=" stroke:none;fill-rule:evenodd;fill:rgb(14.501953%,21.556091%,45.092773%);fill-opacity:1;" d="M 147.71875 39.878906 C 147.746094 39.175781 148.101563 37.851563 148.253906 37.132813 C 148.828125 34.378906 150.179688 30.175781 147.054688 30.128906 C 145.234375 30.101563 143.589844 31.300781 142.488281 32.148438 C 141.640625 32.800781 139.648438 34.867188 139.480469 35.699219 C 139.742188 36 140.007813 36.265625 140.390625 36.339844 C 140.789063 35.871094 142.339844 33.726563 143.367188 34.34375 C 143.984375 35.003906 143.027344 37.410156 142.753906 38.191406 C 141.53125 41.675781 140.304688 45.667969 139.144531 49.25 C 138.335938 51.734375 137.550781 54.164063 136.730469 56.65625 C 136.371094 57.726563 134.367188 63.554688 134.410156 64.160156 L 139.710938 64.144531 L 142.621094 55.324219 C 144.769531 48.691406 147.988281 40.960938 153.316406 36.429688 C 154.0625 35.796875 155.886719 33.976563 157.101563 34.457031 C 157.742188 35.203125 156.316406 38.578125 156.015625 39.472656 C 154.429688 44.25 152.644531 49.871094 151.003906 54.445313 C 150.425781 56.050781 149.734375 57.886719 149.558594 59.664063 C 149.339844 61.820313 149.6875 64.023438 151.3125 64.542969 C 154.964844 65.710938 159.398438 59.914063 159.246094 59.308594 C 158.972656 58.925781 158.914063 58.847656 158.453125 58.699219 C 157.9375 58.96875 156.621094 60.929688 155.777344 60.082031 C 155.214844 59.515625 156.164063 57.203125 156.359375 56.65625 C 157.128906 54.460938 157.78125 52.320313 158.476563 50.171875 C 159.871094 45.847656 161.371094 41.550781 162.746094 37.28125 C 163.320313 35.488281 164.574219 31.96875 162.84375 30.40625 C 161.179688 28.90625 157.804688 30.675781 156.488281 31.46875 C 152.230469 34.039063 148.277344 39.488281 147.71875 39.878906 Z M 147.71875 39.878906 "/>
<path style=" stroke:none;fill-rule:evenodd;fill:rgb(14.501953%,21.556091%,45.092773%);fill-opacity:1;" d="M 89.285156 11.242188 C 91.527344 11.46875 93.511719 10.65625 93.457031 12.535156 C 93.421875 13.554688 92.523438 15.875 92.203125 16.847656 L 86.8125 33.398438 C 85.921875 36.089844 84.914063 38.921875 84.109375 41.652344 C 82.617188 46.710938 80.355469 52.890625 78.71875 58.1875 C 78.296875 59.542969 78.027344 61.457031 78.636719 62.792969 C 79.152344 63.917969 80.617188 64.867188 82.386719 64.433594 C 84.761719 63.851563 87.710938 60.472656 88.003906 59.0625 C 87.621094 58.8125 87.542969 58.601563 87.085938 58.496094 C 86.320313 59.207031 85.246094 61.023438 83.773438 60.585938 C 82.957031 59.960938 84.824219 55.28125 85.242188 54.066406 C 85.972656 51.949219 86.660156 49.875 87.324219 47.785156 C 88.644531 43.625 90.089844 39.359375 91.492188 35.242188 C 92.914063 31.0625 94.199219 26.835938 95.664063 22.703125 C 96.378906 20.683594 97.03125 18.535156 97.746094 16.429688 C 98.15625 15.222656 99.742188 10.921875 99.792969 9.898438 L 89.910156 9.898438 C 89.679688 10.261719 89.289063 10.863281 89.285156 11.242188 Z M 89.285156 11.242188 "/>
<path style=" stroke:none;fill-rule:evenodd;fill:rgb(14.501953%,21.556091%,45.092773%);fill-opacity:1;" d="M 130.289063 34.90625 C 129.671875 37.300781 127.226563 41.121094 125.523438 43.078125 C 124.398438 44.363281 123.425781 45.28125 122.078125 46.199219 C 120.628906 47.195313 118.335938 48.601563 119.644531 45.101563 C 121.078125 41.257813 124.359375 35.9375 127.511719 33.433594 C 129.121094 32.152344 131.183594 31.441406 130.289063 34.90625 Z M 127.394531 58.632813 C 127.144531 58.398438 126.855469 58.15625 126.496094 58.066406 C 125.242188 59.140625 124.839844 60.351563 122.4375 61.574219 C 120.402344 62.613281 118.324219 62.652344 117.144531 60.648438 C 115.316406 57.546875 117.492188 51.199219 118.820313 48.605469 C 121.007813 48.230469 122.011719 48.464844 124.503906 47.148438 C 128.847656 44.851563 133.433594 41.285156 134.578125 35.902344 C 135.074219 33.5625 134.496094 31.5 133.113281 30.550781 C 131.441406 29.402344 129.1875 29.734375 127.273438 30.375 C 123.886719 31.511719 121.15625 34.121094 119.144531 36.589844 C 115.675781 40.847656 110.550781 49.589844 111.296875 57.226563 C 112.003906 64.484375 119.066406 65.933594 123.886719 62.34375 C 124.800781 61.664063 127.054688 59.597656 127.394531 58.632813 Z M 127.394531 58.632813 "/>
<path style=" stroke:none;fill-rule:evenodd;fill:rgb(14.501953%,21.556091%,45.092773%);fill-opacity:1;" d="M 239.453125 36.714844 C 239.589844 35.742188 240.433594 33.816406 240.023438 31.824219 C 239.703125 30.28125 238.617188 29.097656 236.714844 29.730469 C 234.503906 30.472656 231.265625 33.871094 230.910156 35.359375 C 231.242188 35.8125 231.363281 35.835938 231.8125 35.980469 C 232.996094 34.285156 236.253906 32.050781 234.800781 35.921875 C 234.59375 36.46875 234.378906 37.164063 234.191406 37.792969 C 233.09375 41.46875 231.65625 45.386719 230.550781 49.054688 C 229.789063 51.585938 228.972656 54.039063 228.121094 56.605469 C 227.789063 57.628906 225.679688 63.617188 225.828125 64.203125 L 231.449219 64.207031 C 231.777344 63.753906 233.796875 57.007813 234.171875 55.84375 C 236.253906 49.375 238.1875 41.585938 242.386719 36.277344 C 243.136719 35.328125 244.285156 33.996094 245.183594 33.429688 C 246.421875 32.652344 248.777344 32.191406 248.210938 34.742188 C 247.769531 36.71875 248.617188 37.933594 250.726563 37.632813 C 253.488281 37.242188 254.628906 32.160156 252.882813 30.144531 C 249.996094 26.808594 244.351563 31.574219 242.144531 33.78125 C 241.539063 34.386719 239.78125 36.519531 239.453125 36.714844 Z M 239.453125 36.714844 "/>
<path style=" stroke:none;fill-rule:evenodd;fill:rgb(100%,100%,100%);fill-opacity:1;" d="M 270.78125 36.035156 C 271.011719 34.261719 270.726563 32.421875 268.96875 32.035156 C 265.425781 31.257813 261.808594 38.585938 260.472656 41.054688 C 259.003906 43.769531 257.828125 46.363281 256.804688 49.253906 C 255.84375 51.964844 254.746094 55.914063 254.695313 58.859375 C 254.601563 63.960938 257.746094 64.105469 260.328125 61.011719 C 264.539063 55.957031 268.039063 47.554688 269.828125 41.03125 C 270.703125 37.835938 270.363281 39.253906 270.78125 36.035156 Z M 270.78125 36.035156 "/>
<path style=" stroke:none;fill-rule:evenodd;fill:rgb(14.501953%,21.556091%,45.092773%);fill-opacity:1;" d="M 103.984375 29.996094 C 102.777344 30.050781 100.128906 29.808594 99.214844 30.082031 C 98.988281 30.21875 98.898438 30.878906 98.792969 31.261719 C 98.691406 31.652344 98.503906 32.015625 98.558594 32.460938 L 103.152344 32.5 C 103.0625 33.210938 101.78125 36.925781 101.46875 37.898438 C 99.8125 43.039063 97.855469 48.613281 96.296875 53.71875 C 95.378906 56.738281 92.65625 62.429688 95.820313 64.246094 C 99.3125 66.25 104.019531 60.289063 104.132813 59.195313 C 103.867188 58.949219 103.59375 58.707031 103.234375 58.597656 C 102.472656 59.183594 101.472656 60.957031 100.078125 60.757813 C 99.414063 59.835938 100.136719 58.058594 100.480469 56.984375 L 103.898438 46.535156 C 104.859375 43.59375 106.46875 38.957031 107.308594 36.046875 C 107.621094 34.96875 108.066406 33.507813 108.496094 32.492188 C 110.558594 32.429688 112.734375 32.46875 114.800781 32.464844 L 115.390625 30.035156 C 113.554688 29.945313 111.296875 30.027344 109.378906 30 C 109.320313 29.25 111.382813 24.078125 111.449219 23.058594 C 111.007813 23.066406 106.054688 24.503906 105.867188 24.664063 C 105.40625 25.054688 104.496094 29.152344 103.984375 29.996094 Z M 103.984375 29.996094 "/>
<path style=" stroke:none;fill-rule:evenodd;fill:rgb(100%,100%,100%);fill-opacity:1;" d="M 183.855469 32.824219 C 179.496094 33.941406 176.226563 42.332031 174.496094 46.320313 C 173.289063 49.09375 172.476563 51.925781 171.65625 54.890625 C 171.246094 56.363281 170.757813 58.039063 170.753906 59.761719 C 170.746094 61.457031 171.363281 63.433594 173.425781 62.765625 C 175.230469 62.179688 177.839844 58.519531 178.894531 56.816406 C 182.011719 51.761719 184.121094 46.804688 185.699219 40.8125 C 186.164063 39.054688 187.851563 31.800781 183.855469 32.824219 Z M 183.855469 32.824219 "/>
<path style=" stroke:none;fill-rule:evenodd;fill:rgb(100%,100%,100%);fill-opacity:1;" d="M 130.289063 34.90625 C 131.183594 31.441406 129.121094 32.152344 127.511719 33.433594 C 124.359375 35.9375 121.078125 41.257813 119.644531 45.101563 C 118.335938 48.601563 120.628906 47.195313 122.078125 46.199219 C 123.425781 45.28125 124.398438 44.363281 125.523438 43.078125 C 127.226563 41.121094 129.671875 37.300781 130.289063 34.90625 Z M 130.289063 34.90625 "/>
<path style=" stroke:none;fill-rule:evenodd;fill:rgb(14.501953%,21.556091%,45.092773%);fill-opacity:1;" d="M 110.007813 78.082031 C 109.984375 77.414063 110.179688 77.226563 109.570313 77.160156 C 109.277344 77.128906 108.449219 77.167969 108.140625 77.203125 C 108.023438 80.019531 108.089844 83.613281 108.121094 86.460938 C 109.320313 86.527344 109.871094 86.675781 109.988281 86.078125 L 109.996094 84.730469 C 109.992188 83.546875 109.808594 79.992188 110.210938 79.503906 C 110.84375 78.734375 114.214844 77.222656 114.214844 81.113281 L 114.203125 85.757813 C 114.203125 86.515625 114.152344 86.476563 115.203125 86.476563 C 116.34375 86.476563 116.070313 86.726563 116.070313 83.601563 C 116.070313 82.734375 115.886719 80.300781 116.15625 79.699219 C 116.476563 78.976563 117.78125 78.460938 118.925781 78.648438 C 120.367188 78.878906 120.296875 80.4375 120.296875 81.679688 L 120.304688 86.398438 L 122.171875 86.441406 L 122.195313 81.339844 C 122.195313 79.328125 122.03125 77.945313 120.289063 77.265625 C 119.53125 76.96875 118.460938 76.9375 117.636719 77.238281 C 116.886719 77.511719 116.410156 78.132813 115.769531 78.449219 C 115.425781 78.269531 115.488281 78.207031 115.230469 77.925781 C 115.039063 77.71875 114.914063 77.613281 114.664063 77.46875 C 112.359375 76.152344 110.535156 77.996094 110.007813 78.082031 Z M 110.007813 78.082031 "/>
<path style=" stroke:none;fill-rule:evenodd;fill:rgb(14.501953%,21.556091%,45.092773%);fill-opacity:1;" d="M 59.140625 78.113281 L 59.113281 77.234375 C 58.738281 77.140625 58.105469 77.136719 57.710938 77.160156 C 56.996094 77.199219 57.199219 77.433594 57.199219 78.175781 L 57.199219 85.40625 C 57.199219 85.964844 57.035156 86.390625 57.515625 86.476563 C 57.726563 86.515625 58.742188 86.480469 59.011719 86.464844 C 59.1875 85.945313 59.101563 82.074219 59.097656 81 C 59.09375 80.292969 58.9375 79.894531 59.414063 79.421875 C 60.105469 78.742188 61.222656 78.347656 62.261719 78.734375 C 63.28125 79.113281 63.34375 80.1875 63.347656 81.453125 L 63.355469 86.425781 L 65.144531 86.441406 L 65.160156 80.886719 C 65.15625 80.046875 64.984375 79.558594 66.152344 78.921875 C 66.738281 78.605469 67.902344 78.425781 68.59375 78.839844 C 69.585938 79.429688 69.398438 81.164063 69.398438 82.46875 L 69.402344 86.386719 C 70.191406 86.507813 70.480469 86.464844 71.28125 86.421875 C 71.363281 85.050781 71.296875 83.511719 71.296875 82.132813 C 71.296875 80.820313 71.460938 79.382813 70.769531 78.347656 C 70.164063 77.449219 69.109375 76.964844 67.773438 77.03125 C 66.171875 77.113281 65.492188 78.179688 64.839844 78.496094 C 64.433594 78.148438 64.390625 77.871094 63.816406 77.503906 C 61.621094 76.109375 59.53125 77.980469 59.140625 78.113281 Z M 59.140625 78.113281 "/>
<path style=" stroke:none;fill-rule:evenodd;fill:rgb(14.501953%,21.556091%,45.092773%);fill-opacity:1;" d="M 179.722656 78.148438 L 179.683594 77.199219 L 177.894531 77.167969 L 177.84375 86.433594 L 179.683594 86.441406 C 179.804688 84.902344 179.703125 83.003906 179.703125 81.453125 C 179.703125 80.425781 179.511719 79.9375 180.09375 79.375 C 180.527344 78.960938 181.027344 78.648438 181.828125 78.613281 C 184.933594 78.476563 183.71875 82.054688 183.984375 86.410156 L 185.773438 86.441406 C 185.882813 84.871094 185.789063 83.023438 185.789063 81.453125 C 185.789063 80.539063 185.605469 79.867188 186.171875 79.351563 C 186.65625 78.910156 187.203125 78.640625 187.929688 78.609375 C 191.089844 78.484375 189.722656 82.117188 190.066406 86.425781 L 191.882813 86.445313 C 191.984375 85.085938 191.910156 83.492188 191.910156 82.128906 C 191.910156 80.605469 192.078125 79.402344 191.390625 78.335938 C 190.464844 76.902344 188.246094 76.644531 186.753906 77.554688 C 186.253906 77.859375 185.941406 78.28125 185.449219 78.449219 C 185.273438 78.316406 185.414063 78.453125 185.1875 78.214844 C 184.902344 77.910156 184.855469 77.75 184.363281 77.453125 C 183.445313 76.898438 182.027344 76.890625 181.023438 77.367188 C 180.621094 77.558594 180.039063 78.085938 179.722656 78.148438 Z M 179.722656 78.148438 "/>
<path style=" stroke:none;fill-rule:evenodd;fill:rgb(14.501953%,21.556091%,45.092773%);fill-opacity:1;" d="M 38.519531 84.503906 C 38.453125 83.601563 38.496094 82.59375 38.496094 81.679688 C 38.496094 81.003906 38.246094 79.601563 38.757813 79.199219 C 39.214844 78.839844 40.214844 78.644531 41.007813 78.738281 C 43.6875 79.046875 43.914063 82.566406 42.734375 83.972656 C 41.914063 84.949219 39.636719 85.285156 38.519531 84.503906 Z M 36.59375 86.011719 C 47.671875 89.539063 47.308594 77.265625 41.351563 77.007813 C 39.277344 76.917969 39.464844 77.355469 38.496094 77.535156 L 38.4375 72.382813 L 36.679688 72.382813 C 36.453125 72.953125 36.535156 84.511719 36.59375 86.011719 Z M 36.59375 86.011719 "/>
<path style=" stroke:none;fill-rule:evenodd;fill:rgb(14.501953%,21.556091%,45.092773%);fill-opacity:1;" d="M 159.101563 80.320313 C 159.09375 79.769531 158.992188 79.488281 159.371094 79.199219 C 160.601563 78.277344 162.6875 78.742188 163.433594 79.757813 C 164.203125 80.808594 164.296875 82.921875 163.300781 84.039063 C 162.320313 85.136719 160.394531 85.128906 159.117188 84.542969 Z M 157.222656 85.992188 C 158.554688 86.660156 161.390625 86.871094 162.96875 86.332031 C 167.324219 84.839844 166.355469 79.441406 164.386719 77.890625 C 162.113281 76.105469 159.648438 77.457031 159.109375 77.527344 L 159.09375 72.414063 L 157.21875 72.4375 Z M 157.222656 85.992188 "/>
<path style=" stroke:none;fill-rule:evenodd;fill:rgb(14.501953%,21.556091%,45.092773%);fill-opacity:1;" d="M 85.136719 84.378906 C 82.921875 85.875 80.214844 84.765625 80.203125 81.792969 C 80.195313 80.339844 80.738281 79.402344 81.703125 78.894531 C 82.972656 78.222656 84.101563 78.621094 85.148438 79.199219 Z M 85.148438 77.582031 C 84.40625 77.433594 84.394531 76.996094 82.792969 76.992188 C 81.746094 76.988281 81.054688 77.164063 80.316406 77.617188 C 77.511719 79.332031 77.566406 84.015625 80.023438 85.804688 C 81.402344 86.808594 83.269531 86.890625 84.941406 86.089844 C 85.445313 86.300781 84.832031 86.109375 85.246094 86.34375 C 85.515625 86.492188 85.339844 86.441406 85.71875 86.464844 C 86.058594 86.484375 86.632813 86.453125 86.980469 86.429688 L 86.996094 72.414063 L 85.171875 72.40625 Z M 85.148438 77.582031 "/>
<path style=" stroke:none;fill-rule:evenodd;fill:rgb(14.501953%,21.556091%,45.092773%);fill-opacity:1;" d="M 223.476563 80.789063 C 223.339844 78 228.234375 77.789063 228.164063 80.792969 Z M 230.140625 83.726563 C 229.621094 83.765625 228.894531 84.328125 228.296875 84.539063 C 225.835938 85.414063 223.21875 84.558594 223.421875 82.15625 L 230.203125 82.140625 C 230.96875 76.070313 222.996094 75.328125 221.578125 80.058594 C 220.804688 82.632813 221.972656 85.113281 223.71875 86.097656 C 225.515625 87.113281 228.859375 86.617188 230.15625 85.40625 Z M 230.140625 83.726563 "/>
<path style=" stroke:none;fill-rule:evenodd;fill:rgb(14.501953%,21.556091%,45.092773%);fill-opacity:1;" d="M 48.667969 80.785156 C 48.621094 79.542969 49.699219 78.617188 51.0625 78.609375 C 52.34375 78.597656 53.414063 79.484375 53.402344 80.789063 Z M 55.335938 83.71875 C 54.910156 83.777344 54.078125 84.320313 53.453125 84.539063 C 51.019531 85.375 48.503906 84.640625 48.617188 82.15625 L 55.398438 82.148438 C 56.15625 76.050781 48.164063 75.273438 46.789063 80.148438 C 46.058594 82.765625 47.226563 85.183594 48.917969 86.082031 C 50.753906 87.054688 54.082031 86.683594 55.359375 85.40625 Z M 55.335938 83.71875 "/>
<path style=" stroke:none;fill-rule:evenodd;fill:rgb(14.501953%,21.556091%,45.092773%);fill-opacity:1;" d="M 169.285156 80.773438 C 169.320313 77.886719 173.976563 77.898438 174.027344 80.777344 L 172.914063 80.792969 L 170.65625 80.796875 Z M 175.941406 83.734375 C 175.546875 83.769531 174.679688 84.328125 174.085938 84.546875 C 171.664063 85.421875 169.078125 84.554688 169.230469 82.15625 L 176.078125 82.128906 C 176.6875 75.957031 168.789063 75.421875 167.429688 80.035156 C 166.226563 84.125 169.554688 88.945313 175.960938 85.496094 Z M 175.941406 83.734375 "/>
<path style=" stroke:none;fill-rule:evenodd;fill:rgb(14.501953%,21.556091%,45.092773%);fill-opacity:1;" d="M 96.578125 82.582031 C 95.636719 86.488281 89.816406 85.09375 90.863281 80.933594 C 91.789063 77.25 97.5625 78.511719 96.578125 82.582031 Z M 93.636719 86.613281 C 96.628906 86.617188 98.746094 84.355469 98.648438 81.679688 C 98.546875 79.007813 96.40625 76.964844 93.636719 76.988281 C 87.164063 77.050781 87.253906 86.601563 93.636719 86.613281 Z M 93.636719 86.613281 "/>
<path style=" stroke:none;fill-rule:evenodd;fill:rgb(14.501953%,21.556091%,45.092773%);fill-opacity:1;" d="M 199.902344 77.167969 L 197.996094 77.191406 C 198.027344 77.550781 201.953125 85.972656 202.390625 86.628906 L 203.257813 86.605469 C 203.789063 85.585938 207.414063 77.625 207.445313 77.175781 L 205.550781 77.199219 C 205.339844 77.429688 203.609375 81.492188 203.226563 82.410156 C 203.074219 82.769531 203.050781 82.855469 202.839844 83.070313 C 202.585938 82.855469 202.527344 82.660156 202.390625 82.355469 C 202.285156 82.125 202.164063 81.875 202.035156 81.59375 C 201.585938 80.640625 200.265625 77.566406 199.902344 77.167969 Z M 199.902344 77.167969 "/>
<path style=" stroke:none;fill-rule:evenodd;fill:rgb(14.501953%,21.556091%,45.092773%);fill-opacity:1;" d="M 213.449219 77.171875 L 211.453125 77.195313 C 211.511719 77.636719 215.328125 85.589844 215.855469 86.632813 L 216.703125 86.613281 C 217.140625 85.925781 220.878906 77.652344 220.902344 77.171875 L 218.996094 77.1875 C 218.3125 78.296875 216.800781 82.683594 216.234375 83.15625 Z M 213.449219 77.171875 "/>
<path style=" stroke:none;fill-rule:evenodd;fill:rgb(100%,100%,100%);fill-opacity:1;" d="M 96.578125 82.582031 C 97.5625 78.511719 91.789063 77.25 90.863281 80.933594 C 89.816406 85.09375 95.636719 86.488281 96.578125 82.582031 Z M 96.578125 82.582031 "/>
<g clip-path="url(#clip3)" clip-rule="nonzero">
<path style=" stroke:none;fill-rule:evenodd;fill:rgb(14.501953%,21.556091%,45.092773%);fill-opacity:1;" d="M 144.996094 91.199219 L 146.382813 91.238281 L 146.386719 70.808594 L 145.019531 70.816406 Z M 144.996094 91.199219 "/>
</g>
<path style=" stroke:none;fill-rule:evenodd;fill:rgb(100%,100%,100%);fill-opacity:1;" d="M 85.136719 84.378906 L 85.148438 79.199219 C 84.101563 78.621094 82.972656 78.222656 81.703125 78.894531 C 80.738281 79.402344 80.195313 80.339844 80.203125 81.792969 C 80.214844 84.765625 82.921875 85.875 85.136719 84.378906 Z M 85.136719 84.378906 "/>
<path style=" stroke:none;fill-rule:evenodd;fill:rgb(100%,100%,100%);fill-opacity:1;" d="M 38.519531 84.503906 C 39.636719 85.285156 41.914063 84.949219 42.734375 83.972656 C 43.914063 82.566406 43.6875 79.046875 41.007813 78.738281 C 40.214844 78.644531 39.214844 78.839844 38.757813 79.199219 C 38.246094 79.601563 38.496094 81.003906 38.496094 81.679688 C 38.496094 82.59375 38.453125 83.601563 38.519531 84.503906 Z M 38.519531 84.503906 "/>
<path style=" stroke:none;fill-rule:evenodd;fill:rgb(100%,100%,100%);fill-opacity:1;" d="M 159.117188 84.542969 C 160.394531 85.128906 162.320313 85.136719 163.300781 84.039063 C 164.296875 82.921875 164.203125 80.808594 163.433594 79.757813 C 162.6875 78.742188 160.601563 78.277344 159.371094 79.199219 C 158.992188 79.488281 159.09375 79.769531 159.101563 80.320313 Z M 159.117188 84.542969 "/>
<path style=" stroke:none;fill-rule:evenodd;fill:rgb(14.501953%,21.556091%,45.092773%);fill-opacity:1;" d="M 238.671875 77.949219 C 238.191406 77.257813 236.828125 76.761719 235.824219 77.167969 C 234.855469 77.5625 234.453125 78.710938 233.921875 78.949219 L 233.863281 77.179688 L 232.097656 77.1875 C 231.914063 78.214844 232.039063 80.621094 232.046875 81.792969 C 232.046875 82.875 231.824219 85.589844 232.136719 86.375 C 232.527344 86.503906 233.453125 86.511719 233.828125 86.355469 C 234.367188 84.859375 232.894531 79.695313 235.535156 78.910156 C 236.675781 78.570313 237.046875 79.269531 237.773438 79.515625 Z M 238.671875 77.949219 "/>
<path style=" stroke:none;fill-rule:evenodd;fill:rgb(14.501953%,21.556091%,45.092773%);fill-opacity:1;" d="M 106.222656 79.464844 C 106.460938 79 107.035156 78.378906 107.03125 77.839844 C 105.816406 76.925781 104.492188 76.535156 103.265625 77.867188 C 103.050781 78.097656 103.035156 78.136719 102.867188 78.367188 C 102.578125 78.761719 102.753906 78.679688 102.289063 78.804688 L 102.269531 77.226563 C 101.886719 77.144531 101.359375 77.140625 100.960938 77.15625 C 100.316406 77.179688 100.425781 77.210938 100.425781 77.839844 L 100.4375 86.414063 L 102.238281 86.4375 C 102.363281 84.761719 101.980469 81.910156 102.46875 80.570313 C 103.558594 77.574219 105.636719 79.359375 106.222656 79.464844 Z M 106.222656 79.464844 "/>
<path style=" stroke:none;fill-rule:evenodd;fill:rgb(14.501953%,21.556091%,45.092773%);fill-opacity:1;" d="M 134.515625 79.453125 C 134.859375 79.15625 135.308594 78.429688 135.445313 77.949219 C 134.996094 77.285156 133.605469 76.746094 132.605469 77.164063 C 131.558594 77.605469 131.316406 78.558594 130.683594 78.972656 L 130.640625 77.179688 L 128.835938 77.179688 L 128.859375 86.449219 L 130.652344 86.40625 C 130.757813 84.863281 130.429688 81.824219 130.855469 80.617188 C 131.929688 77.566406 134.121094 79.347656 134.515625 79.453125 Z M 134.515625 79.453125 "/>
<path style=" stroke:none;fill-rule:evenodd;fill:rgb(14.501953%,21.556091%,45.092773%);fill-opacity:1;" d="M 126.34375 77.199219 C 124.078125 76.953125 124.492188 77.304688 124.496094 78.628906 C 124.496094 79.722656 124.492188 80.8125 124.492188 81.90625 C 124.492188 86.945313 123.960938 86.640625 126.308594 86.460938 C 126.453125 85.957031 126.453125 78 126.34375 77.199219 Z M 126.34375 77.199219 "/>
<path style=" stroke:none;fill-rule:evenodd;fill:rgb(100%,100%,100%);fill-opacity:1;" d="M 72.824219 16.890625 C 72.285156 18.140625 70.289063 21.785156 69.472656 23.386719 C 69.082031 24.148438 66.152344 29.617188 66.136719 29.988281 L 68.40625 30 C 68.78125 29.3125 72.980469 17.335938 72.976563 17.1875 L 73.082031 16.707031 C 72.914063 17.117188 73.109375 16.667969 72.824219 16.890625 Z M 72.824219 16.890625 "/>
<path style=" stroke:none;fill-rule:evenodd;fill:rgb(14.501953%,21.556091%,45.092773%);fill-opacity:1;" d="M 208.578125 86.449219 L 210.421875 86.414063 L 210.421875 77.207031 L 208.554688 77.214844 Z M 208.578125 86.449219 "/>
<path style=" stroke:none;fill-rule:evenodd;fill:rgb(100%,100%,100%);fill-opacity:1;" d="M 223.476563 80.789063 L 228.164063 80.792969 C 228.234375 77.789063 223.339844 78 223.476563 80.789063 Z M 223.476563 80.789063 "/>
<path style=" stroke:none;fill-rule:evenodd;fill:rgb(100%,100%,100%);fill-opacity:1;" d="M 169.285156 80.773438 L 170.65625 80.796875 L 172.914063 80.792969 L 174.027344 80.777344 C 173.976563 77.898438 169.320313 77.886719 169.285156 80.773438 Z M 169.285156 80.773438 "/>
<path style=" stroke:none;fill-rule:evenodd;fill:rgb(100%,100%,100%);fill-opacity:1;" d="M 48.667969 80.785156 L 53.402344 80.789063 C 53.414063 79.484375 52.34375 78.597656 51.0625 78.609375 C 49.699219 78.617188 48.621094 79.542969 48.667969 80.785156 Z M 48.667969 80.785156 "/>
<g clip-path="url(#clip4)" clip-rule="nonzero">
<path style=" stroke:none;fill-rule:evenodd;fill:rgb(57.617188%,63.867188%,78.125%);fill-opacity:1;" d="M 145.019531 70.816406 L 146.386719 70.808594 L 146.382813 91.238281 L 144.996094 91.199219 L 145.023438 70.816406 Z M 144.914063 91.394531 L 146.453125 91.394531 C 146.652344 90.304688 146.585938 71.164063 146.414063 70.671875 C 145.976563 70.59375 145.3125 70.539063 144.921875 70.71875 C 144.757813 71.132813 144.71875 90.726563 144.921875 91.394531 Z M 144.914063 91.394531 "/>
</g>
<path style=" stroke:none;fill-rule:evenodd;fill:rgb(14.501953%,21.556091%,45.092773%);fill-opacity:1;" d="M 208.949219 73.546875 C 207.84375 74.265625 208.800781 76.066406 210.050781 75.328125 C 211.203125 74.648438 210.085938 72.804688 208.949219 73.546875 Z M 208.949219 73.546875 "/>
<path style=" stroke:none;fill-rule:evenodd;fill:rgb(14.501953%,21.556091%,45.092773%);fill-opacity:1;" d="M 125.023438 73.519531 C 123.796875 74.046875 124.535156 75.890625 125.863281 75.394531 C 126.972656 74.980469 126.441406 72.90625 125.023438 73.519531 Z M 125.023438 73.519531 "/>
<path style=" stroke:none;fill-rule:evenodd;fill:rgb(57.617188%,63.867188%,78.125%);fill-opacity:1;" d="M 72.824219 16.890625 C 73.109375 16.667969 72.914063 17.117188 73.082031 16.707031 L 72.976563 17.1875 C 73.167969 17.027344 73.066406 17.335938 73.3125 16.800781 L 73.683594 15.402344 C 73.277344 15.730469 73.4375 15.644531 73.207031 16.054688 C 72.964844 16.476563 72.976563 16.367188 72.824219 16.890625 Z M 72.824219 16.890625 "/>
</g>
</svg>
